<svg xmlns="http://www.w3.org/2000/svg" xmlns:xlink="http://www.w3.org/1999/xlink" width="500" zoomAndPan="magnify" viewBox="0 0 375 374.999991" height="500" preserveAspectRatio="xMidYMid meet" version="1.0"><defs><clipPath id="2d1a6d39b6"><path d="M 24 56.078125 L 350.933594 56.078125 L 350.933594 307.328125 L 24 307.328125 Z M 24 56.078125 " clip-rule="nonzero"/></clipPath></defs><rect x="-37.5" width="450" fill="#ffffff" y="-37.499999" height="449.999989" fill-opacity="1"/><rect x="-37.5" width="450" fill="#000000" y="-37.499999" height="449.999989" fill-opacity="1"/><g clip-path="url(#2d1a6d39b6)"><path fill="#00bf63" d="M 104.578125 134.257812 C 140.625 123.421875 145.238281 103.003906 178.132812 92.789062 C 189.386719 89.292969 226.003906 80.144531 258.441406 100.8125 C 289.824219 120.8125 296.980469 155.785156 298.359375 163.421875 C 290.554688 163.429688 258.515625 164.351562 231.242188 189.152344 C 198.847656 218.613281 198.730469 258.527344 198.816406 264.773438 L 174.355469 264.773438 C 174.808594 250.726562 177.820312 219.578125 199.050781 189.980469 C 205.726562 180.675781 219.640625 161.78125 245.226562 150.714844 C 254.230469 146.820312 262.289062 144.929688 268.078125 143.9375 C 265.570312 138.519531 259.816406 128.117188 248.191406 120.59375 C 233.679688 111.199219 218.308594 112.023438 208.558594 112.507812 C 204.132812 112.726562 196.007812 113.191406 186.308594 116.675781 C 171.621094 121.949219 165.207031 129.488281 155.160156 137.160156 C 127.839844 158.015625 96.40625 161.511719 84.011719 162.890625 C 70.289062 164.417969 58.847656 163.726562 51.296875 162.890625 L 53.753906 138.398438 C 65.988281 139.8125 84.261719 140.363281 104.578125 134.257812 Z M 51.636719 85.132812 C 50.546875 103.945312 65.753906 119.582031 83.4375 119.390625 C 100.027344 119.210938 114.34375 105.15625 114.609375 87.523438 C 114.28125 70.082031 99.96875 56.113281 83.128906 56.078125 C 67.109375 56.042969 53.1875 68.632812 51.636719 85.132812 Z M 142.175781 248.382812 C 142.199219 280.808594 115.523438 307.503906 83.097656 307.503906 C 50.671875 307.503906 23.996094 280.808594 24.015625 248.382812 C 24.1875 216.089844 50.804688 189.613281 83.097656 189.613281 C 115.390625 189.613281 142.007812 216.089844 142.175781 248.382812 Z M 118.277344 251.488281 C 119.96875 231.128906 103.246094 213.097656 83.097656 213.0625 C 64.972656 213.03125 49.152344 227.566406 47.859375 246.0625 C 46.539062 264.984375 60.828125 282.242188 80.074219 283.882812 C 99.617188 285.550781 116.703125 270.46875 118.277344 251.488281 Z M 350.933594 248.382812 C 350.957031 280.808594 324.28125 307.503906 291.855469 307.503906 C 259.429688 307.503906 232.753906 280.808594 232.773438 248.382812 C 232.945312 216.089844 259.5625 189.613281 291.855469 189.613281 C 324.148438 189.613281 350.765625 216.089844 350.933594 248.382812 Z M 327.160156 248.558594 C 327.191406 229.445312 311.261719 213.074219 291.855469 213.0625 C 273.582031 213.050781 258.089844 227.550781 256.644531 245.714844 C 255.121094 264.832031 269.625 282.0625 288.464844 283.851562 C 308.816406 285.78125 327.128906 269.015625 327.160156 248.558594 Z M 327.160156 248.558594 " fill-opacity="1" fill-rule="nonzero"/><path fill="#00bf63" d="M 104.578125 134.257812 C 140.625 123.421875 145.238281 103.003906 178.132812 92.789062 C 189.386719 89.292969 226.003906 80.144531 258.441406 100.8125 C 289.824219 120.8125 296.980469 155.785156 298.359375 163.421875 C 290.554688 163.429688 258.515625 164.351562 231.242188 189.152344 C 198.847656 218.613281 198.730469 258.527344 198.816406 264.773438 L 174.355469 264.773438 C 174.808594 250.726562 177.820312 219.578125 199.050781 189.980469 C 205.726562 180.675781 219.640625 161.78125 245.226562 150.714844 C 254.230469 146.820312 262.289062 144.929688 268.078125 143.9375 C 265.570312 138.519531 259.816406 128.117188 248.191406 120.59375 C 233.679688 111.199219 218.308594 112.023438 208.558594 112.507812 C 204.132812 112.726562 196.007812 113.191406 186.308594 116.675781 C 171.621094 121.949219 165.207031 129.488281 155.160156 137.160156 C 127.839844 158.015625 96.40625 161.511719 84.011719 162.890625 C 70.289062 164.417969 58.847656 163.726562 51.296875 162.890625 L 53.753906 138.398438 C 65.988281 139.8125 84.261719 140.363281 104.578125 134.257812 Z M 51.636719 85.132812 C 50.546875 103.945312 65.753906 119.582031 83.4375 119.390625 C 100.027344 119.210938 114.34375 105.15625 114.609375 87.523438 C 114.28125 70.082031 99.96875 56.113281 83.128906 56.078125 C 67.109375 56.042969 53.1875 68.632812 51.636719 85.132812 Z M 142.175781 248.382812 C 142.199219 280.808594 115.523438 307.503906 83.097656 307.503906 C 50.671875 307.503906 23.996094 280.808594 24.015625 248.382812 C 24.1875 216.089844 50.804688 189.613281 83.097656 189.613281 C 115.390625 189.613281 142.007812 216.089844 142.175781 248.382812 Z M 118.277344 251.488281 C 119.96875 231.128906 103.246094 213.097656 83.097656 213.0625 C 64.972656 213.03125 49.152344 227.566406 47.859375 246.0625 C 46.539062 264.984375 60.828125 282.242188 80.074219 283.882812 C 99.617188 285.550781 116.703125 270.46875 118.277344 251.488281 Z M 350.933594 248.382812 C 350.957031 280.808594 324.28125 307.503906 291.855469 307.503906 C 259.429688 307.503906 232.753906 280.808594 232.773438 248.382812 C 232.945312 216.089844 259.5625 189.613281 291.855469 189.613281 C 324.148438 189.613281 350.765625 216.089844 350.933594 248.382812 Z M 327.160156 248.558594 C 327.191406 229.445312 311.261719 213.074219 291.855469 213.0625 C 273.582031 213.050781 258.089844 227.550781 256.644531 245.714844 C 255.121094 264.832031 269.625 282.0625 288.464844 283.851562 C 308.816406 285.78125 327.128906 269.015625 327.160156 248.558594 Z M 327.160156 248.558594 " fill-opacity="1" fill-rule="nonzero"/></g></svg>