<svg xmlns="http://www.w3.org/2000/svg" xmlns:xlink="http://www.w3.org/1999/xlink" width="160" zoomAndPan="magnify" viewBox="0 0 120 48" height="64" preserveAspectRatio="xMidYMid meet" version="1.0"><defs><g/><clipPath id="edfb0822cb"><path d="M 14.023438 7.535156 L 55.898438 7.535156 L 55.898438 39.128906 L 14.023438 39.128906 Z M 14.023438 7.535156 " clip-rule="nonzero"/></clipPath></defs><g clip-path="url(#edfb0822cb)"><path fill="#00bf63" d="M 24.269531 17.464844 C 28.847656 16.089844 29.433594 13.496094 33.613281 12.199219 C 35.039062 11.753906 39.691406 10.59375 43.808594 13.21875 C 47.796875 15.757812 48.703125 20.199219 48.878906 21.167969 C 47.886719 21.167969 43.820312 21.285156 40.355469 24.4375 C 36.242188 28.175781 36.226562 33.246094 36.238281 34.039062 L 33.132812 34.039062 C 33.1875 32.253906 33.570312 28.300781 36.269531 24.542969 C 37.117188 23.359375 38.882812 20.960938 42.132812 19.554688 C 43.273438 19.058594 44.296875 18.820312 45.035156 18.695312 C 44.714844 18.007812 43.984375 16.683594 42.507812 15.730469 C 40.664062 14.535156 38.714844 14.640625 37.476562 14.703125 C 36.914062 14.730469 35.882812 14.789062 34.648438 15.230469 C 32.785156 15.902344 31.96875 16.859375 30.695312 17.832031 C 27.226562 20.480469 23.234375 20.925781 21.660156 21.101562 C 19.914062 21.296875 18.464844 21.207031 17.503906 21.101562 L 17.816406 17.992188 C 19.371094 18.171875 21.691406 18.238281 24.269531 17.464844 Z M 17.546875 11.226562 C 17.410156 13.617188 19.339844 15.601562 21.585938 15.578125 C 23.691406 15.554688 25.511719 13.769531 25.542969 11.53125 C 25.503906 9.316406 23.683594 7.542969 21.546875 7.535156 C 19.511719 7.53125 17.746094 9.132812 17.546875 11.226562 Z M 29.046875 31.957031 C 29.046875 36.074219 25.660156 39.464844 21.542969 39.464844 C 17.425781 39.464844 14.039062 36.074219 14.039062 31.957031 C 14.0625 27.855469 17.441406 24.496094 21.542969 24.496094 C 25.644531 24.496094 29.023438 27.855469 29.046875 31.957031 Z M 26.011719 32.351562 C 26.226562 29.765625 24.101562 27.476562 21.542969 27.472656 C 19.242188 27.46875 17.230469 29.3125 17.066406 31.664062 C 16.898438 34.066406 18.714844 36.257812 21.160156 36.464844 C 23.640625 36.675781 25.808594 34.761719 26.011719 32.351562 Z M 55.554688 31.957031 C 55.558594 36.074219 52.171875 39.464844 48.054688 39.464844 C 43.933594 39.464844 40.546875 36.074219 40.550781 31.957031 C 40.570312 27.855469 43.953125 24.496094 48.054688 24.496094 C 52.152344 24.496094 55.535156 27.855469 55.554688 31.957031 Z M 52.535156 31.980469 C 52.539062 29.554688 50.519531 27.472656 48.054688 27.472656 C 45.730469 27.472656 43.765625 29.3125 43.582031 31.617188 C 43.386719 34.046875 45.230469 36.234375 47.621094 36.460938 C 50.207031 36.707031 52.53125 34.578125 52.535156 31.980469 Z M 52.535156 31.980469 " fill-opacity="1" fill-rule="nonzero"/><path fill="#00bf63" d="M 24.269531 17.464844 C 28.847656 16.089844 29.433594 13.496094 33.613281 12.199219 C 35.039062 11.753906 39.691406 10.59375 43.808594 13.21875 C 47.796875 15.757812 48.703125 20.199219 48.878906 21.167969 C 47.886719 21.167969 43.820312 21.285156 40.355469 24.4375 C 36.242188 28.175781 36.226562 33.246094 36.238281 34.039062 L 33.132812 34.039062 C 33.1875 32.253906 33.570312 28.300781 36.269531 24.542969 C 37.117188 23.359375 38.882812 20.960938 42.132812 19.554688 C 43.273438 19.058594 44.296875 18.820312 45.035156 18.695312 C 44.714844 18.007812 43.984375 16.683594 42.507812 15.730469 C 40.664062 14.535156 38.714844 14.640625 37.476562 14.703125 C 36.914062 14.730469 35.882812 14.789062 34.648438 15.230469 C 32.785156 15.902344 31.96875 16.859375 30.695312 17.832031 C 27.226562 20.480469 23.234375 20.925781 21.660156 21.101562 C 19.914062 21.296875 18.464844 21.207031 17.503906 21.101562 L 17.816406 17.992188 C 19.371094 18.171875 21.691406 18.238281 24.269531 17.464844 Z M 17.546875 11.226562 C 17.410156 13.617188 19.339844 15.601562 21.585938 15.578125 C 23.691406 15.554688 25.511719 13.769531 25.542969 11.53125 C 25.503906 9.316406 23.683594 7.542969 21.546875 7.535156 C 19.511719 7.53125 17.746094 9.132812 17.546875 11.226562 Z M 29.046875 31.957031 C 29.046875 36.074219 25.660156 39.464844 21.542969 39.464844 C 17.425781 39.464844 14.039062 36.074219 14.039062 31.957031 C 14.0625 27.855469 17.441406 24.496094 21.542969 24.496094 C 25.644531 24.496094 29.023438 27.855469 29.046875 31.957031 Z M 26.011719 32.351562 C 26.226562 29.765625 24.101562 27.476562 21.542969 27.472656 C 19.242188 27.46875 17.230469 29.3125 17.066406 31.664062 C 16.898438 34.066406 18.714844 36.257812 21.160156 36.464844 C 23.640625 36.675781 25.808594 34.761719 26.011719 32.351562 Z M 55.554688 31.957031 C 55.558594 36.074219 52.171875 39.464844 48.054688 39.464844 C 43.933594 39.464844 40.546875 36.074219 40.550781 31.957031 C 40.570312 27.855469 43.953125 24.496094 48.054688 24.496094 C 52.152344 24.496094 55.535156 27.855469 55.554688 31.957031 Z M 52.535156 31.980469 C 52.539062 29.554688 50.519531 27.472656 48.054688 27.472656 C 45.730469 27.472656 43.765625 29.3125 43.582031 31.617188 C 43.386719 34.046875 45.230469 36.234375 47.621094 36.460938 C 50.207031 36.707031 52.53125 34.578125 52.535156 31.980469 Z M 52.535156 31.980469 " fill-opacity="1" fill-rule="nonzero"/></g><g fill="#eee5e9" fill-opacity="1"><g transform="translate(55.540155, 25.523512)"><g><path d="M 2.3125 0.015625 L 2.015625 0 L 1.609375 0 L 1.5 -0.015625 L 0.65625 -0.015625 L 0.515625 -0.046875 L 0.46875 -0.1875 L 0.515625 -0.328125 L 0.546875 -0.46875 L 0.578125 -0.703125 L 0.609375 -0.96875 L 0.671875 -1.203125 L 0.6875 -1.453125 L 0.734375 -1.578125 L 0.734375 -1.71875 L 0.765625 -1.828125 L 0.765625 -1.9375 L 0.796875 -2.0625 L 0.8125 -2.171875 L 0.828125 -2.390625 L 0.859375 -2.59375 L 0.9375 -2.734375 L 0.96875 -2.984375 L 0.96875 -3.09375 L 1 -3.21875 L 1.03125 -3.421875 L 1.03125 -3.5 L 1.09375 -3.6875 L 1.078125 -3.78125 L 1.125 -3.984375 L 1.171875 -4.09375 L 1.1875 -4.203125 L 1.234375 -4.453125 L 1.265625 -4.5625 L 1.328125 -4.890625 L 1.328125 -5.125 L 1.390625 -5.34375 L 1.421875 -5.578125 L 1.46875 -5.6875 L 1.484375 -5.8125 L 1.5 -5.921875 L 1.5 -6.03125 L 1.5625 -6.140625 L 1.65625 -6.609375 L 1.703125 -6.734375 L 1.734375 -6.84375 L 1.71875 -6.9375 L 1.765625 -7.15625 L 1.828125 -7.390625 L 1.84375 -7.828125 L 1.890625 -7.953125 L 1.90625 -8.28125 L 1.96875 -8.375 L 2 -8.5 L 2.015625 -8.609375 L 2 -8.703125 L 2.015625 -8.8125 L 2.078125 -9.015625 L 2.109375 -9.234375 L 2.15625 -9.328125 L 2.15625 -9.4375 L 2.203125 -9.546875 L 2.1875 -9.65625 L 2.21875 -9.765625 L 2.234375 -9.96875 L 2.265625 -10.0625 L 2.28125 -10.15625 L 2.296875 -10.359375 L 2.3125 -10.453125 L 2.28125 -10.5625 L 2.328125 -10.75 L 2.375 -10.84375 L 2.390625 -10.9375 L 2.515625 -11.03125 L 2.796875 -11.03125 L 2.890625 -11.046875 L 3 -11.03125 L 3.1875 -11.046875 L 3.296875 -11.046875 L 3.421875 -11.03125 L 3.578125 -11.03125 L 3.921875 -11.046875 L 5.109375 -11.0625 L 5.46875 -11.046875 L 5.59375 -11.03125 L 6.046875 -11.046875 L 6.40625 -11.046875 L 6.546875 -11.0625 L 6.703125 -11.046875 L 6.84375 -11.03125 L 6.921875 -10.921875 L 6.875 -10.75 L 6.875 -10.65625 L 6.84375 -10.265625 L 6.84375 -10.171875 L 6.796875 -10.0625 L 6.78125 -9.953125 L 6.765625 -9.859375 L 6.71875 -9.609375 L 6.71875 -9.484375 L 6.65625 -9.265625 L 6.640625 -9.171875 L 6.59375 -8.96875 L 6.4375 -8.953125 L 5.765625 -8.953125 L 5.578125 -8.9375 L 4.5625 -8.9375 L 4.171875 -8.921875 L 4.125 -8.734375 L 4.109375 -8.625 L 4.109375 -8.40625 L 4.0625 -8.3125 L 4.0625 -8.1875 L 4.015625 -7.890625 L 3.984375 -7.65625 L 3.9375 -7.4375 L 3.90625 -7.328125 L 3.921875 -7.203125 L 3.875 -7.046875 L 3.84375 -6.765625 L 4.125 -6.765625 L 4.6875 -6.75 L 4.984375 -6.78125 L 5.390625 -6.78125 L 5.515625 -6.75 L 5.609375 -6.625 L 5.578125 -6.4375 L 5.578125 -6.3125 L 5.546875 -6.140625 L 5.5 -5.90625 L 5.46875 -5.796875 L 5.421875 -5.5625 L 5.421875 -5.453125 L 5.375 -5.328125 L 5.34375 -5.109375 L 5.296875 -4.859375 L 5.265625 -4.640625 L 5.234375 -4.609375 L 5.078125 -4.609375 L 4.84375 -4.59375 L 4.703125 -4.59375 L 4.296875 -4.578125 L 4.03125 -4.59375 L 3.859375 -4.59375 L 3.65625 -4.578125 L 3.515625 -4.578125 L 3.453125 -4.40625 L 3.40625 -4.1875 L 3.34375 -3.75 L 3.296875 -3.59375 L 3.265625 -3.453125 L 3.25 -3.296875 L 3.21875 -3.1875 L 3.171875 -2.90625 L 3.109375 -2.484375 L 3.109375 -2.359375 L 3.171875 -2.296875 L 3.390625 -2.265625 L 4.3125 -2.265625 L 4.546875 -2.25 L 4.890625 -2.234375 L 5.328125 -2.25 L 5.4375 -2.203125 L 5.421875 -2.078125 L 5.40625 -2.015625 L 5.375 -1.84375 L 5.359375 -1.71875 L 5.296875 -1.375 L 5.296875 -1.171875 L 5.265625 -1.0625 L 5.234375 -0.96875 L 5.21875 -0.84375 L 5.171875 -0.609375 L 5.15625 -0.34375 L 5.125 -0.203125 L 5.078125 -0.03125 L 3.578125 -0.03125 L 3.328125 -0.015625 L 3.125 -0.03125 L 3.03125 -0.015625 L 2.703125 -0.015625 L 2.4375 0 Z M 2.3125 0.015625 "/></g></g></g><g fill="#eee5e9" fill-opacity="1"><g transform="translate(61.833272, 25.523512)"><g><path d="M 3.453125 0.1875 L 3.3125 0.171875 L 3.203125 0.171875 L 3.09375 0.15625 L 2.921875 0.140625 L 2.796875 0.125 L 2.703125 0.109375 L 2.53125 0.09375 L 2.421875 0.0625 L 2.328125 0.046875 L 2.125 -0.03125 L 1.9375 -0.09375 L 1.84375 -0.171875 L 1.6875 -0.265625 L 1.609375 -0.328125 L 1.515625 -0.390625 L 1.3125 -0.546875 L 1.25 -0.625 L 1.171875 -0.703125 L 1.0625 -0.9375 L 0.921875 -1.140625 L 0.859375 -1.34375 L 0.828125 -1.4375 L 0.796875 -1.640625 L 0.765625 -1.75 L 0.765625 -2.046875 L 0.75 -2.171875 L 0.75 -2.3125 L 0.765625 -2.421875 L 0.765625 -2.84375 L 0.78125 -3.171875 L 0.796875 -3.296875 L 0.8125 -3.515625 L 0.84375 -3.734375 L 0.84375 -3.84375 L 0.859375 -3.9375 L 0.90625 -4.265625 L 0.96875 -4.5 L 0.953125 -4.640625 L 0.984375 -4.765625 L 1.03125 -4.9375 L 1.015625 -5.015625 L 1.0625 -5.296875 L 1.125 -5.390625 L 1.125 -5.609375 L 1.140625 -5.65625 L 1.140625 -5.71875 L 1.1875 -5.890625 L 1.21875 -6.0625 L 1.265625 -6.234375 L 1.28125 -6.421875 L 1.28125 -6.515625 L 1.328125 -6.609375 L 1.328125 -6.828125 L 1.40625 -7.140625 L 1.4375 -7.25 L 1.46875 -7.421875 L 1.484375 -7.578125 L 1.53125 -7.671875 L 1.546875 -7.78125 L 1.578125 -7.90625 L 1.59375 -8 L 1.609375 -8.109375 L 1.65625 -8.21875 L 1.703125 -8.421875 L 1.8125 -8.734375 L 1.90625 -9.046875 L 1.96875 -9.265625 L 2.0625 -9.53125 L 2.140625 -9.734375 L 2.234375 -9.953125 L 2.296875 -10.125 L 2.40625 -10.21875 L 2.515625 -10.375 L 2.65625 -10.53125 L 2.875 -10.75 L 2.96875 -10.828125 L 3.171875 -10.921875 L 3.265625 -10.96875 L 3.59375 -11.109375 L 3.859375 -11.15625 L 4.0625 -11.203125 L 4.171875 -11.21875 L 4.421875 -11.21875 L 4.71875 -11.234375 L 4.96875 -11.234375 L 5.359375 -11.1875 L 5.5 -11.140625 L 5.65625 -11.140625 L 5.875 -11.109375 L 5.96875 -11.09375 L 6.078125 -11.0625 L 6.203125 -11.046875 L 6.265625 -11 L 6.4375 -10.96875 L 6.65625 -10.890625 L 6.859375 -10.734375 L 7.03125 -10.578125 L 7.0625 -10.5 L 7.140625 -10.359375 L 7.1875 -10.28125 L 7.21875 -10.171875 L 7.296875 -10.015625 L 7.328125 -9.84375 L 7.34375 -9.65625 L 7.359375 -9.4375 L 7.375 -9.296875 L 7.390625 -9.0625 L 7.390625 -8.71875 L 7.375 -8.5625 L 7.34375 -8.4375 L 7.3125 -8.203125 L 7.28125 -7.953125 L 7.1875 -7.328125 L 7.15625 -7.203125 L 7.078125 -6.796875 L 7.015625 -6.734375 L 6.828125 -6.71875 L 6.609375 -6.703125 L 5.609375 -6.71875 L 5.15625 -6.78125 L 5.046875 -6.953125 L 5.046875 -7.171875 L 5.078125 -7.28125 L 5.140625 -7.5625 L 5.171875 -7.78125 L 5.265625 -8.140625 L 5.28125 -8.34375 L 5.3125 -8.5625 L 5.3125 -8.796875 L 5.21875 -9.078125 L 5.046875 -9.171875 L 4.828125 -9.234375 L 4.65625 -9.234375 L 4.46875 -9.203125 L 4.28125 -9.140625 L 4.140625 -8.96875 L 4.09375 -8.875 L 4.046875 -8.765625 L 3.984375 -8.5 L 3.90625 -8.296875 L 3.8125 -8.03125 L 3.8125 -7.9375 L 3.75 -7.734375 L 3.703125 -7.5 L 3.65625 -7.3125 L 3.609375 -7.171875 L 3.59375 -7.0625 L 3.578125 -6.96875 L 3.546875 -6.859375 L 3.515625 -6.640625 L 3.4375 -6.40625 L 3.3125 -5.765625 L 3.296875 -5.640625 L 3.234375 -5.390625 L 3.21875 -5.28125 L 3.1875 -5.078125 L 3.15625 -4.953125 L 3.109375 -4.71875 L 3.109375 -4.390625 L 3.0625 -4.265625 L 3.046875 -4.15625 L 3.046875 -4.03125 L 3.03125 -3.921875 L 3 -3.8125 L 3.015625 -3.703125 L 2.96875 -3.375 L 2.96875 -3.25 L 2.921875 -3.03125 L 2.90625 -2.8125 L 2.90625 -2.65625 L 2.921875 -2.546875 L 2.921875 -2.4375 L 2.984375 -2.203125 L 3.109375 -2.09375 L 3.34375 -2.015625 L 3.59375 -2.046875 L 3.828125 -2.046875 L 4.046875 -2.1875 L 4.109375 -2.265625 L 4.234375 -2.546875 L 4.3125 -2.78125 L 4.390625 -2.984375 L 4.40625 -3.078125 L 4.421875 -3.15625 L 4.46875 -3.34375 L 4.515625 -3.578125 L 4.546875 -3.71875 L 4.5625 -3.828125 L 4.640625 -4.03125 L 4.671875 -4.1875 L 4.78125 -4.3125 L 4.90625 -4.328125 L 5.3125 -4.3125 L 5.640625 -4.3125 L 6.421875 -4.265625 L 6.609375 -4.25 L 6.71875 -4.140625 L 6.78125 -4.03125 L 6.78125 -3.859375 L 6.75 -3.765625 L 6.75 -3.65625 L 6.71875 -3.453125 L 6.703125 -3.28125 L 6.671875 -3.203125 L 6.65625 -3.09375 L 6.640625 -3.03125 L 6.59375 -2.703125 L 6.5625 -2.59375 L 6.46875 -2.203125 L 6.421875 -2.015625 L 6.40625 -1.90625 L 6.375 -1.796875 L 6.328125 -1.703125 L 6.234375 -1.453125 L 6.15625 -1.265625 L 6.09375 -1.15625 L 6.03125 -1.0625 L 5.953125 -0.96875 L 5.90625 -0.859375 L 5.875 -0.765625 L 5.640625 -0.484375 L 5.40625 -0.28125 L 5.15625 -0.125 L 5.046875 -0.078125 L 4.640625 0.015625 L 4.453125 0.0625 L 4.25 0.09375 L 4.046875 0.140625 L 3.8125 0.140625 L 3.609375 0.15625 Z M 3.453125 0.1875 "/></g></g></g><g fill="#eee5e9" fill-opacity="1"><g transform="translate(69.056944, 25.523512)"><g><path d="M 3.8125 0.25 L 3.40625 0.203125 L 3.203125 0.21875 L 3.09375 0.203125 L 2.953125 0.1875 L 2.578125 0.078125 L 2.453125 0.0625 L 2.21875 0 L 2.109375 -0.0625 L 1.890625 -0.203125 L 1.609375 -0.4375 L 1.390625 -0.6875 L 1.34375 -0.765625 L 1.265625 -0.84375 L 1.21875 -0.953125 L 1.140625 -1.0625 L 1.015625 -1.265625 L 1.015625 -1.359375 L 0.96875 -1.46875 L 0.953125 -1.5625 L 0.921875 -1.640625 L 0.890625 -1.734375 L 0.859375 -1.84375 L 0.828125 -1.9375 L 0.8125 -2.15625 L 0.796875 -2.25 L 0.75 -2.5625 L 0.78125 -2.6875 L 0.78125 -2.984375 L 0.828125 -3.140625 L 0.8125 -3.265625 L 0.8125 -3.375 L 0.84375 -3.71875 L 0.921875 -3.9375 L 0.921875 -4.0625 L 0.953125 -4.28125 L 0.953125 -4.40625 L 1.015625 -4.625 L 0.984375 -4.703125 L 1.015625 -4.90625 L 1.046875 -5.015625 L 1.09375 -5.296875 L 1.140625 -5.484375 L 1.140625 -5.6875 L 1.1875 -5.875 L 1.1875 -5.984375 L 1.234375 -6.078125 L 1.265625 -6.203125 L 1.265625 -6.296875 L 1.296875 -6.40625 L 1.28125 -6.5 L 1.375 -6.65625 L 1.40625 -6.765625 L 1.40625 -6.984375 L 1.4375 -7.171875 L 1.484375 -7.28125 L 1.5 -7.375 L 1.53125 -7.59375 L 1.59375 -8 L 1.671875 -8.109375 L 1.703125 -8.3125 L 1.796875 -8.515625 L 1.84375 -8.625 L 1.90625 -8.8125 L 1.984375 -9.03125 L 2.078125 -9.21875 L 2.140625 -9.328125 L 2.28125 -9.53125 L 2.296875 -9.65625 L 2.359375 -9.75 L 2.484375 -9.953125 L 2.609375 -10.140625 L 2.734375 -10.21875 L 2.8125 -10.3125 L 3.03125 -10.546875 L 3.234375 -10.6875 L 3.359375 -10.734375 L 3.46875 -10.8125 L 3.65625 -10.921875 L 3.84375 -11.015625 L 4.078125 -11.078125 L 4.171875 -11.09375 L 4.421875 -11.15625 L 4.578125 -11.171875 L 4.859375 -11.21875 L 5.078125 -11.234375 L 5.265625 -11.25 L 5.546875 -11.234375 L 5.640625 -11.21875 L 5.8125 -11.203125 L 6.0625 -11.171875 L 6.203125 -11.125 L 6.328125 -11.109375 L 6.421875 -11.078125 L 6.65625 -10.96875 L 6.9375 -10.78125 L 7.0625 -10.703125 L 7.140625 -10.609375 L 7.3125 -10.46875 L 7.484375 -10.3125 L 7.5625 -10.21875 L 7.609375 -10.109375 L 7.703125 -9.90625 L 7.75 -9.8125 L 7.78125 -9.71875 L 7.8125 -9.59375 L 7.859375 -9.359375 L 7.90625 -9.0625 L 7.921875 -8.9375 L 7.921875 -8.828125 L 7.90625 -8.625 L 7.890625 -8.53125 L 7.90625 -8.328125 L 7.90625 -8.21875 L 7.890625 -8.015625 L 7.84375 -7.90625 L 7.828125 -7.796875 L 7.84375 -7.6875 L 7.84375 -7.53125 L 7.828125 -7.4375 L 7.796875 -7.21875 L 7.78125 -6.984375 L 7.765625 -6.734375 L 7.734375 -6.625 L 7.703125 -6.375 L 7.71875 -6.21875 L 7.640625 -6.03125 L 7.65625 -5.84375 L 7.59375 -5.640625 L 7.5625 -5.4375 L 7.515625 -5.234375 L 7.5 -5.046875 L 7.453125 -4.84375 L 7.40625 -4.75 L 7.359375 -4.46875 L 7.359375 -4.3125 L 7.328125 -4.203125 L 7.296875 -3.984375 L 7.25 -3.890625 L 7.09375 -3.34375 L 7.109375 -3.25 L 7.03125 -3.0625 L 6.984375 -2.96875 L 6.96875 -2.796875 L 6.890625 -2.609375 L 6.84375 -2.421875 L 6.84375 -2.3125 L 6.796875 -2.140625 L 6.71875 -2.03125 L 6.703125 -1.875 L 6.59375 -1.65625 L 6.46875 -1.375 L 6.390625 -1.265625 L 6.25 -1.0625 L 6.1875 -0.96875 L 6.09375 -0.859375 L 6.0625 -0.765625 L 5.875 -0.578125 L 5.78125 -0.5 L 5.703125 -0.40625 L 5.515625 -0.265625 L 5.328125 -0.140625 L 5.265625 -0.09375 L 4.90625 0.046875 L 4.796875 0.0625 L 4.671875 0.09375 L 4.453125 0.140625 L 4.328125 0.15625 L 4.15625 0.203125 Z M 3.6875 -1.890625 L 3.890625 -1.890625 L 4.109375 -1.953125 L 4.25 -2.015625 L 4.484375 -2.171875 L 4.59375 -2.390625 L 4.6875 -2.609375 L 4.71875 -2.734375 L 4.71875 -2.859375 L 4.765625 -3.09375 L 4.796875 -3.203125 L 4.828125 -3.421875 L 4.875 -3.546875 L 4.890625 -3.765625 L 4.9375 -3.875 L 4.984375 -4.078125 L 5 -4.203125 L 5.046875 -4.296875 L 5.046875 -4.4375 L 5.03125 -4.484375 L 5.078125 -4.625 L 5.125 -4.859375 L 5.15625 -5.21875 L 5.203125 -5.359375 L 5.25 -5.484375 L 5.28125 -5.78125 L 5.328125 -5.875 L 5.3125 -6.15625 L 5.375 -6.390625 L 5.40625 -6.578125 L 5.4375 -6.703125 L 5.46875 -6.8125 L 5.453125 -6.921875 L 5.46875 -7.125 L 5.5 -7.25 L 5.546875 -7.46875 L 5.578125 -7.609375 L 5.578125 -7.8125 L 5.609375 -8.109375 L 5.625 -8.3125 L 5.65625 -8.53125 L 5.59375 -8.84375 L 5.53125 -8.9375 L 5.421875 -9.078125 L 5.171875 -9.1875 L 4.875 -9.171875 L 4.75 -9.140625 L 4.5 -9.046875 L 4.328125 -8.90625 L 4.21875 -8.734375 L 4.15625 -8.546875 L 4.09375 -8.4375 L 4 -8.234375 L 3.96875 -8.125 L 3.9375 -8 L 3.84375 -7.65625 L 3.84375 -7.625 L 3.828125 -7.5 L 3.78125 -7.28125 L 3.765625 -7.1875 L 3.703125 -6.96875 L 3.65625 -6.75 L 3.609375 -6.5 L 3.59375 -6.390625 L 3.5625 -6.28125 L 3.53125 -6.03125 L 3.484375 -5.90625 L 3.421875 -5.65625 L 3.390625 -5.546875 L 3.359375 -5.328125 L 3.359375 -5.21875 L 3.34375 -5.109375 L 3.359375 -4.984375 L 3.3125 -4.875 L 3.234375 -4.65625 L 3.25 -4.53125 L 3.21875 -4.421875 L 3.234375 -4.34375 L 3.203125 -4.203125 L 3.203125 -4.078125 L 3.171875 -3.96875 L 3.171875 -3.84375 L 3.125 -3.609375 L 3.125 -3.5 L 3.078125 -3.390625 L 3.125 -3.28125 L 3.109375 -3.09375 L 3.046875 -2.9375 L 3.09375 -2.828125 L 3.09375 -2.375 L 3.140625 -2.265625 L 3.171875 -2.203125 L 3.265625 -2.0625 L 3.34375 -1.984375 L 3.46875 -1.9375 L 3.59375 -1.90625 Z M 3.6875 -1.890625 "/></g></g></g><g fill="#eee5e9" fill-opacity="1"><g transform="translate(77.053451, 25.523512)"><g><path d="M 2.078125 0.03125 L 1.515625 0.015625 L 1.3125 0.015625 L 0.8125 -0.015625 L 0.671875 -0.046875 L 0.640625 -0.140625 L 0.640625 -0.28125 L 0.6875 -0.4375 L 0.703125 -0.59375 L 0.71875 -0.765625 L 0.71875 -0.890625 L 0.75 -0.984375 L 0.75 -1.09375 L 0.796875 -1.203125 L 0.796875 -1.296875 L 0.8125 -1.40625 L 0.859375 -1.625 L 0.859375 -1.734375 L 0.921875 -1.859375 L 0.90625 -1.96875 L 0.953125 -2.09375 L 0.96875 -2.3125 L 1 -2.4375 L 1.015625 -2.546875 L 1 -2.6875 L 1.0625 -2.8125 L 1.0625 -3.046875 L 1.140625 -3.328125 L 1.140625 -3.46875 L 1.171875 -3.625 L 1.1875 -3.859375 L 1.1875 -3.984375 L 1.25 -4.203125 L 1.265625 -4.3125 L 1.28125 -4.453125 L 1.28125 -4.59375 L 1.359375 -4.703125 L 1.390625 -4.796875 L 1.375 -4.890625 L 1.390625 -5.078125 L 1.421875 -5.1875 L 1.46875 -5.28125 L 1.46875 -5.375 L 1.5 -5.484375 L 1.53125 -5.65625 L 1.546875 -5.75 L 1.578125 -5.953125 L 1.609375 -6.1875 L 1.609375 -6.3125 L 1.6875 -6.640625 L 1.6875 -6.75 L 1.703125 -6.84375 L 1.71875 -6.953125 L 1.75 -7.15625 L 1.765625 -7.25 L 1.765625 -7.359375 L 1.78125 -7.453125 L 1.84375 -7.640625 L 1.859375 -7.859375 L 1.875 -7.96875 L 1.921875 -8.1875 L 1.96875 -8.4375 L 2.015625 -8.65625 L 2.03125 -8.75 L 2.03125 -8.84375 L 2.046875 -9.046875 L 2.046875 -9.140625 L 2.078125 -9.25 L 2.125 -9.4375 L 2.171875 -9.703125 L 2.234375 -10.140625 L 2.25 -10.265625 L 2.265625 -10.375 L 2.265625 -10.5 L 2.328125 -10.625 L 2.3125 -10.796875 L 2.375 -10.875 L 2.484375 -11 L 2.65625 -11.03125 L 2.875 -11.03125 L 3.8125 -11.015625 L 4.5 -11.015625 L 4.609375 -11.03125 L 4.765625 -11.046875 L 4.890625 -11.015625 L 5.125 -10.984375 L 5.265625 -10.984375 L 5.46875 -10.953125 L 5.703125 -10.9375 L 5.875 -10.90625 L 6.140625 -10.90625 L 6.265625 -10.875 L 6.4375 -10.796875 L 6.578125 -10.734375 L 6.6875 -10.703125 L 6.828125 -10.609375 L 6.921875 -10.5625 L 7 -10.515625 L 7.1875 -10.40625 L 7.25 -10.34375 L 7.328125 -10.25 L 7.390625 -10.171875 L 7.5 -9.984375 L 7.609375 -9.765625 L 7.65625 -9.5 L 7.6875 -9.203125 L 7.6875 -9.09375 L 7.734375 -8.796875 L 7.734375 -8.671875 L 7.6875 -8.453125 L 7.671875 -8.34375 L 7.6875 -8.109375 L 7.6875 -8 L 7.640625 -7.734375 L 7.609375 -7.484375 L 7.5625 -7.328125 L 7.5 -7.140625 L 7.46875 -7.03125 L 7.4375 -6.9375 L 7.390625 -6.828125 L 7.3125 -6.640625 L 7.171875 -6.4375 L 7.125 -6.328125 L 7.0625 -6.1875 L 6.9375 -5.96875 L 6.890625 -5.875 L 6.71875 -5.671875 L 6.640625 -5.59375 L 6.421875 -5.359375 L 6.09375 -5.15625 L 5.875 -5.046875 L 5.765625 -5.03125 L 5.765625 -4.890625 L 5.8125 -4.765625 L 5.890625 -4.53125 L 5.890625 -4.390625 L 5.921875 -4.171875 L 5.984375 -4.078125 L 6 -3.953125 L 6.03125 -3.75 L 6.078125 -3.65625 L 6.140625 -3.453125 L 6.171875 -3.359375 L 6.203125 -3.140625 L 6.25 -3.03125 L 6.28125 -2.90625 L 6.34375 -2.703125 L 6.34375 -2.59375 L 6.421875 -2.359375 L 6.453125 -2.15625 L 6.625 -1.59375 L 6.65625 -1.375 L 6.765625 -1.109375 L 6.78125 -0.921875 L 6.796875 -0.796875 L 6.828125 -0.65625 L 6.9375 -0.359375 L 6.890625 -0.15625 L 6.8125 -0.140625 L 6.640625 -0.109375 L 6.4375 -0.109375 L 6.09375 -0.0625 L 5.6875 -0.015625 L 5.484375 -0.015625 L 5.3125 0 L 5.1875 0 L 5.046875 0.015625 L 4.953125 0 L 4.8125 -0.140625 L 4.78125 -0.21875 L 4.734375 -0.40625 L 4.703125 -0.484375 L 4.65625 -0.65625 L 4.5625 -0.90625 L 4.5625 -1.03125 L 4.515625 -1.15625 L 4.484375 -1.203125 L 4.453125 -1.40625 L 4.40625 -1.515625 L 4.40625 -1.625 L 4.34375 -1.71875 L 4.328125 -1.828125 L 4.28125 -2 L 4.21875 -2.15625 L 4.21875 -2.34375 L 4.125 -2.640625 L 4.109375 -2.75 L 4.046875 -2.9375 L 4.015625 -3.046875 L 3.984375 -3.25 L 3.921875 -3.453125 L 3.90625 -3.671875 L 3.875 -3.75 L 3.828125 -3.96875 L 3.796875 -4.125 L 3.734375 -4.25 L 3.703125 -4.390625 L 3.640625 -4.515625 L 3.578125 -4.578125 L 3.46875 -4.59375 L 3.453125 -4.53125 L 3.421875 -4.4375 L 3.375 -4.203125 L 3.359375 -4.078125 L 3.3125 -3.75 L 3.3125 -3.484375 L 3.234375 -3.28125 L 3.203125 -3.0625 L 3.203125 -2.96875 L 3.171875 -2.75 L 3.109375 -2.609375 L 3.109375 -2.28125 L 3.078125 -2.15625 L 3.015625 -1.828125 L 3 -1.703125 L 2.96875 -1.609375 L 2.96875 -1.484375 L 2.921875 -1.265625 L 2.9375 -1.171875 L 2.90625 -1.0625 L 2.90625 -0.96875 L 2.890625 -0.75 L 2.875 -0.640625 L 2.875 -0.546875 L 2.859375 -0.4375 L 2.84375 -0.25 L 2.796875 -0.140625 L 2.75 0 L 2.578125 -0.015625 L 2.4375 0 L 2.203125 0.015625 Z M 4.125 -6.46875 L 4.390625 -6.46875 L 4.578125 -6.515625 L 4.671875 -6.578125 L 4.828125 -6.671875 L 4.9375 -6.734375 L 5.046875 -6.859375 L 5.109375 -6.953125 L 5.21875 -7.046875 L 5.296875 -7.25 L 5.328125 -7.375 L 5.34375 -7.46875 L 5.453125 -7.6875 L 5.453125 -7.8125 L 5.5 -7.953125 L 5.515625 -8.203125 L 5.5 -8.546875 L 5.453125 -8.875 L 5.375 -9.015625 L 5.265625 -9.125 L 5.125 -9.203125 L 4.78125 -9.25 L 4.40625 -9.265625 L 4.25 -9.21875 L 4.203125 -9.046875 L 4.15625 -8.9375 L 4.125 -8.6875 L 4.109375 -8.453125 L 4.09375 -8.25 L 4.0625 -8.125 L 4.015625 -7.859375 L 4.015625 -7.75 L 3.984375 -7.515625 L 3.9375 -7.375 L 3.953125 -7.234375 L 3.921875 -7.09375 L 3.875 -6.84375 L 3.859375 -6.734375 L 3.875 -6.625 L 3.859375 -6.5 Z M 4.125 -6.46875 "/></g></g></g><g fill="#eee5e9" fill-opacity="1"><g transform="translate(84.813374, 25.523512)"><g><path d="M 2.171875 0.03125 L 2.0625 0.015625 L 1.609375 0.015625 L 1.390625 -0.015625 L 1.265625 -0.015625 L 1.15625 0 L 0.984375 -0.015625 L 0.859375 -0.03125 L 0.734375 -0.015625 L 0.609375 -0.046875 L 0.484375 -0.15625 L 0.46875 -0.390625 L 0.546875 -0.609375 L 0.5625 -0.84375 L 0.59375 -0.96875 L 0.625 -1.1875 L 0.640625 -1.3125 L 0.6875 -1.546875 L 0.703125 -1.65625 L 0.734375 -1.78125 L 0.75 -1.890625 L 0.8125 -2.09375 L 0.796875 -2.1875 L 0.84375 -2.46875 L 0.90625 -2.65625 L 0.9375 -2.796875 L 0.984375 -2.9375 L 1.015625 -3.078125 L 1.046875 -3.265625 L 1.046875 -3.375 L 1.078125 -3.484375 L 1.09375 -3.578125 L 1.125 -3.6875 L 1.109375 -3.796875 L 1.21875 -4.140625 L 1.25 -4.390625 L 1.25 -4.484375 L 1.28125 -4.59375 L 1.296875 -4.703125 L 1.3125 -4.796875 L 1.34375 -5.015625 L 1.34375 -5.234375 L 1.40625 -5.453125 L 1.40625 -5.5625 L 1.4375 -5.78125 L 1.5 -5.90625 L 1.5 -6.109375 L 1.53125 -6.3125 L 1.578125 -6.515625 L 1.65625 -6.734375 L 1.703125 -7.0625 L 1.703125 -7.28125 L 1.75 -7.390625 L 1.78125 -7.609375 L 1.796875 -7.703125 L 1.78125 -7.8125 L 1.84375 -8.015625 L 1.859375 -8.109375 L 1.90625 -8.3125 L 1.921875 -8.421875 L 1.984375 -8.625 L 1.96875 -8.734375 L 1.984375 -8.859375 L 2 -9.0625 L 2.03125 -9.140625 L 2.0625 -9.359375 L 2.109375 -9.5625 L 2.125 -9.671875 L 2.15625 -9.765625 L 2.171875 -9.953125 L 2.203125 -10.125 L 2.265625 -10.296875 L 2.296875 -10.53125 L 2.328125 -10.625 L 2.34375 -10.734375 L 2.453125 -10.890625 L 2.5625 -10.9375 L 2.671875 -11 L 2.78125 -11.015625 L 3.015625 -11.03125 L 3.15625 -11.015625 L 3.375 -11.015625 L 3.484375 -11.03125 L 4.3125 -11.03125 L 4.4375 -11.046875 L 4.609375 -11 L 4.671875 -10.84375 L 4.65625 -10.75 L 4.65625 -10.546875 L 4.625 -10.5 L 4.609375 -10.328125 L 4.625 -10.234375 L 4.578125 -10.171875 L 4.578125 -10.03125 L 4.53125 -9.953125 L 4.5 -9.734375 L 4.4375 -9.578125 L 4.4375 -9.453125 L 4.421875 -9.359375 L 4.421875 -9.25 L 4.40625 -9.15625 L 4.3125 -8.75 L 4.28125 -8.578125 L 4.25 -8.484375 L 4.21875 -8.296875 L 4.203125 -8.1875 L 4.1875 -8 L 4.140625 -7.671875 L 4.09375 -7.484375 L 4.046875 -7.28125 L 4.03125 -7.203125 L 3.984375 -6.984375 L 3.9375 -6.84375 L 3.9375 -6.703125 L 3.921875 -6.59375 L 3.90625 -6.46875 L 3.90625 -6.359375 L 3.875 -6.15625 L 3.828125 -5.984375 L 3.75 -5.515625 L 3.6875 -5.296875 L 3.640625 -5.1875 L 3.640625 -5.0625 L 3.59375 -4.859375 L 3.5625 -4.65625 L 3.53125 -4.46875 L 3.46875 -4.234375 L 3.46875 -4.109375 L 3.40625 -3.890625 L 3.40625 -3.765625 L 3.375 -3.546875 L 3.359375 -3.46875 L 3.359375 -3.25 L 3.28125 -3.09375 L 3.296875 -2.921875 L 3.25 -2.6875 L 3.234375 -2.546875 L 3.171875 -2.34375 L 3.171875 -2.21875 L 3.125 -2 L 3.09375 -1.78125 L 3.0625 -1.578125 L 3.0625 -1.46875 L 3.015625 -1.296875 L 2.953125 -0.921875 L 2.90625 -0.703125 L 2.875 -0.484375 L 2.828125 -0.28125 L 2.8125 -0.15625 L 2.765625 -0.015625 L 2.578125 0.03125 Z M 2.171875 0.03125 "/></g></g></g><g fill="#eee5e9" fill-opacity="1"><g transform="translate(89.308466, 25.523512)"><g><path d="M 3.34375 0.03125 L 2.984375 0.015625 L 2.78125 0 L 2.5625 0.015625 L 2.328125 -0.015625 L 2.140625 0 L 2.015625 -0.015625 L 1.875 -0.015625 L 1.65625 -0.046875 L 1.5625 -0.0625 L 1.4375 -0.0625 L 1.328125 -0.046875 L 0.84375 -0.046875 L 0.625 -0.078125 L 0.5 -0.109375 L 0.5 -0.46875 L 0.515625 -0.609375 L 0.59375 -0.796875 L 0.625 -1.03125 L 0.640625 -1.125 L 0.6875 -1.34375 L 0.71875 -1.5 L 0.75 -1.625 L 0.75 -1.75 L 0.78125 -1.96875 L 0.796875 -2.09375 L 0.828125 -2.265625 L 0.90625 -2.390625 L 0.9375 -2.546875 L 0.9375 -2.6875 L 0.984375 -2.90625 L 1.015625 -3.03125 L 1.03125 -3.234375 L 1.046875 -3.328125 L 1.109375 -3.4375 L 1.109375 -3.78125 L 1.15625 -4 L 1.171875 -4.125 L 1.21875 -4.34375 L 1.234375 -4.46875 L 1.265625 -4.671875 L 1.296875 -4.78125 L 1.34375 -4.96875 L 1.359375 -5.0625 L 1.421875 -5.25 L 1.421875 -5.5625 L 1.453125 -5.671875 L 1.484375 -5.765625 L 1.53125 -5.984375 L 1.5625 -6.078125 L 1.640625 -6.53125 L 1.6875 -6.640625 L 1.71875 -6.75 L 1.734375 -6.859375 L 1.734375 -6.953125 L 1.75 -7.0625 L 1.78125 -7.25 L 1.796875 -7.359375 L 1.84375 -7.546875 L 1.84375 -7.640625 L 1.875 -7.828125 L 1.9375 -8.03125 L 1.9375 -8.25 L 1.953125 -8.375 L 1.984375 -8.703125 L 2.015625 -8.890625 L 2.09375 -9.171875 L 2.125 -9.28125 L 2.125 -9.375 L 2.140625 -9.484375 L 2.1875 -9.703125 L 2.21875 -9.921875 L 2.25 -10.109375 L 2.296875 -10.203125 L 2.3125 -10.3125 L 2.328125 -10.5 L 2.359375 -10.609375 L 2.40625 -10.765625 L 2.4375 -10.8125 L 2.484375 -10.984375 L 2.65625 -11.03125 L 2.765625 -11.03125 L 2.953125 -11.015625 L 3.0625 -11 L 3.3125 -11.03125 L 3.4375 -11.03125 L 3.78125 -11.015625 L 4.09375 -11.03125 L 4.5 -11.03125 L 4.671875 -11.015625 L 4.765625 -11.03125 L 5.015625 -11.03125 L 5.140625 -11.015625 L 5.28125 -11 L 5.515625 -10.96875 L 5.625 -10.96875 L 5.75 -10.921875 L 5.96875 -10.859375 L 6 -10.859375 L 6.09375 -10.828125 L 6.375 -10.75 L 6.453125 -10.703125 L 6.515625 -10.671875 L 6.671875 -10.578125 L 6.78125 -10.5 L 6.875 -10.421875 L 7.109375 -10.109375 L 7.234375 -9.921875 L 7.296875 -9.84375 L 7.375 -9.703125 L 7.4375 -9.46875 L 7.53125 -9.234375 L 7.59375 -9.125 L 7.640625 -8.859375 L 7.640625 -8.75 L 7.71875 -8.53125 L 7.703125 -8.421875 L 7.734375 -8.109375 L 7.75 -7.90625 L 7.703125 -7.796875 L 7.75 -7.578125 L 7.765625 -7.484375 L 7.75 -7.375 L 7.78125 -7.265625 L 7.765625 -7.15625 L 7.765625 -7.0625 L 7.71875 -6.8125 L 7.71875 -6.703125 L 7.6875 -6.4375 L 7.671875 -6.328125 L 7.671875 -5.875 L 7.59375 -5.625 L 7.59375 -5.515625 L 7.53125 -5.21875 L 7.5 -4.984375 L 7.46875 -4.625 L 7.4375 -4.5 L 7.390625 -4.359375 L 7.375 -4.203125 L 7.28125 -3.875 L 7.265625 -3.671875 L 7.234375 -3.484375 L 7.1875 -3.375 L 7.078125 -3.171875 L 7.046875 -3.078125 L 7.03125 -2.90625 L 6.9375 -2.703125 L 6.921875 -2.59375 L 6.859375 -2.375 L 6.75 -2.15625 L 6.640625 -1.84375 L 6.5625 -1.6875 L 6.4375 -1.5625 L 6.421875 -1.46875 L 6.34375 -1.359375 L 6.265625 -1.265625 L 6.15625 -1.078125 L 5.921875 -0.796875 L 5.703125 -0.625 L 5.5625 -0.5 L 5.46875 -0.4375 L 5.265625 -0.34375 L 5.09375 -0.296875 L 4.9375 -0.1875 L 4.71875 -0.125 L 4.5625 -0.09375 L 4.296875 -0.0625 L 4.125 0 L 3.640625 0 L 3.53125 0.015625 L 3.453125 0.015625 Z M 3.28125 -2.109375 L 3.75 -2.109375 L 3.90625 -2.15625 L 4.03125 -2.21875 L 4.203125 -2.3125 L 4.28125 -2.375 L 4.421875 -2.5 L 4.53125 -2.640625 L 4.578125 -2.734375 L 4.640625 -2.84375 L 4.703125 -3 L 4.78125 -3.15625 L 4.859375 -3.359375 L 4.953125 -3.65625 L 5 -3.828125 L 5.046875 -4.046875 L 5.109375 -4.25 L 5.125 -4.34375 L 5.1875 -4.53125 L 5.234375 -4.71875 L 5.25 -4.828125 L 5.28125 -5.03125 L 5.3125 -5.25 L 5.34375 -5.484375 L 5.359375 -5.59375 L 5.390625 -5.71875 L 5.46875 -5.9375 L 5.46875 -6.171875 L 5.515625 -6.5 L 5.53125 -6.59375 L 5.5625 -6.921875 L 5.546875 -7.25 L 5.5625 -7.703125 L 5.53125 -8.140625 L 5.515625 -8.265625 L 5.421875 -8.53125 L 5.3125 -8.734375 L 5.21875 -8.8125 L 5.140625 -8.875 L 4.875 -8.953125 L 4.625 -8.984375 L 4.421875 -9 L 4.265625 -8.984375 L 4.21875 -8.859375 L 4.171875 -8.75 L 4.171875 -8.65625 L 4.140625 -8.546875 L 4.09375 -8.3125 L 4.03125 -8.09375 L 4 -7.890625 L 3.96875 -7.65625 L 3.9375 -7.3125 L 3.921875 -7.21875 L 3.890625 -7.109375 L 3.890625 -7 L 3.875 -6.875 L 3.828125 -6.78125 L 3.828125 -6.6875 L 3.78125 -6.46875 L 3.75 -6.21875 L 3.75 -6.09375 L 3.703125 -5.875 L 3.671875 -5.78125 L 3.625 -5.5625 L 3.625 -5.46875 L 3.578125 -5.25 L 3.546875 -5.140625 L 3.5625 -5.046875 L 3.53125 -4.9375 L 3.46875 -4.53125 L 3.46875 -4.3125 L 3.453125 -4.21875 L 3.375 -4 L 3.375 -3.90625 L 3.328125 -3.671875 L 3.265625 -3.390625 L 3.25 -3.28125 L 3.1875 -3.0625 L 3.15625 -2.828125 L 3.140625 -2.578125 L 3.09375 -2.3125 L 3.0625 -2.171875 Z M 3.28125 -2.109375 "/></g></g></g><g fill="#eee5e9" fill-opacity="1"><g transform="translate(97.320745, 25.523512)"><g><path d="M 2.3125 0.015625 L 2.015625 0 L 1.609375 0 L 1.5 -0.015625 L 0.65625 -0.015625 L 0.515625 -0.046875 L 0.46875 -0.1875 L 0.515625 -0.328125 L 0.546875 -0.46875 L 0.578125 -0.703125 L 0.609375 -0.96875 L 0.671875 -1.203125 L 0.6875 -1.453125 L 0.734375 -1.578125 L 0.734375 -1.71875 L 0.765625 -1.828125 L 0.765625 -1.9375 L 0.796875 -2.0625 L 0.8125 -2.171875 L 0.828125 -2.390625 L 0.859375 -2.59375 L 0.9375 -2.734375 L 0.96875 -2.984375 L 0.96875 -3.09375 L 1 -3.21875 L 1.03125 -3.421875 L 1.03125 -3.5 L 1.09375 -3.6875 L 1.078125 -3.78125 L 1.125 -3.984375 L 1.171875 -4.09375 L 1.1875 -4.203125 L 1.234375 -4.453125 L 1.265625 -4.5625 L 1.328125 -4.890625 L 1.328125 -5.125 L 1.390625 -5.34375 L 1.421875 -5.578125 L 1.46875 -5.6875 L 1.484375 -5.8125 L 1.5 -5.921875 L 1.5 -6.03125 L 1.5625 -6.140625 L 1.65625 -6.609375 L 1.703125 -6.734375 L 1.734375 -6.84375 L 1.71875 -6.9375 L 1.765625 -7.15625 L 1.828125 -7.390625 L 1.84375 -7.828125 L 1.890625 -7.953125 L 1.90625 -8.28125 L 1.96875 -8.375 L 2 -8.5 L 2.015625 -8.609375 L 2 -8.703125 L 2.015625 -8.8125 L 2.078125 -9.015625 L 2.109375 -9.234375 L 2.15625 -9.328125 L 2.15625 -9.4375 L 2.203125 -9.546875 L 2.1875 -9.65625 L 2.21875 -9.765625 L 2.234375 -9.96875 L 2.265625 -10.0625 L 2.28125 -10.15625 L 2.296875 -10.359375 L 2.3125 -10.453125 L 2.28125 -10.5625 L 2.328125 -10.75 L 2.375 -10.84375 L 2.390625 -10.9375 L 2.515625 -11.03125 L 2.796875 -11.03125 L 2.890625 -11.046875 L 3 -11.03125 L 3.1875 -11.046875 L 3.296875 -11.046875 L 3.421875 -11.03125 L 3.578125 -11.03125 L 3.921875 -11.046875 L 5.109375 -11.0625 L 5.46875 -11.046875 L 5.59375 -11.03125 L 6.046875 -11.046875 L 6.40625 -11.046875 L 6.546875 -11.0625 L 6.703125 -11.046875 L 6.84375 -11.03125 L 6.921875 -10.921875 L 6.875 -10.75 L 6.875 -10.65625 L 6.84375 -10.265625 L 6.84375 -10.171875 L 6.796875 -10.0625 L 6.78125 -9.953125 L 6.765625 -9.859375 L 6.71875 -9.609375 L 6.71875 -9.484375 L 6.65625 -9.265625 L 6.640625 -9.171875 L 6.59375 -8.96875 L 6.4375 -8.953125 L 5.765625 -8.953125 L 5.578125 -8.9375 L 4.5625 -8.9375 L 4.171875 -8.921875 L 4.125 -8.734375 L 4.109375 -8.625 L 4.109375 -8.40625 L 4.0625 -8.3125 L 4.0625 -8.1875 L 4.015625 -7.890625 L 3.984375 -7.65625 L 3.9375 -7.4375 L 3.90625 -7.328125 L 3.921875 -7.203125 L 3.875 -7.046875 L 3.84375 -6.765625 L 4.125 -6.765625 L 4.6875 -6.75 L 4.984375 -6.78125 L 5.390625 -6.78125 L 5.515625 -6.75 L 5.609375 -6.625 L 5.578125 -6.4375 L 5.578125 -6.3125 L 5.546875 -6.140625 L 5.5 -5.90625 L 5.46875 -5.796875 L 5.421875 -5.5625 L 5.421875 -5.453125 L 5.375 -5.328125 L 5.34375 -5.109375 L 5.296875 -4.859375 L 5.265625 -4.640625 L 5.234375 -4.609375 L 5.078125 -4.609375 L 4.84375 -4.59375 L 4.703125 -4.59375 L 4.296875 -4.578125 L 4.03125 -4.59375 L 3.859375 -4.59375 L 3.65625 -4.578125 L 3.515625 -4.578125 L 3.453125 -4.40625 L 3.40625 -4.1875 L 3.34375 -3.75 L 3.296875 -3.59375 L 3.265625 -3.453125 L 3.25 -3.296875 L 3.21875 -3.1875 L 3.171875 -2.90625 L 3.109375 -2.484375 L 3.109375 -2.359375 L 3.171875 -2.296875 L 3.390625 -2.265625 L 4.3125 -2.265625 L 4.546875 -2.25 L 4.890625 -2.234375 L 5.328125 -2.25 L 5.4375 -2.203125 L 5.421875 -2.078125 L 5.40625 -2.015625 L 5.375 -1.84375 L 5.359375 -1.71875 L 5.296875 -1.375 L 5.296875 -1.171875 L 5.265625 -1.0625 L 5.234375 -0.96875 L 5.21875 -0.84375 L 5.171875 -0.609375 L 5.15625 -0.34375 L 5.125 -0.203125 L 5.078125 -0.03125 L 3.578125 -0.03125 L 3.328125 -0.015625 L 3.125 -0.03125 L 3.03125 -0.015625 L 2.703125 -0.015625 L 2.4375 0 Z M 2.3125 0.015625 "/></g></g></g><g fill="#eee5e9" fill-opacity="1"><g transform="translate(62.76212, 34.158132)"><g><path d="M 0.40625 0 L 0.40625 -3.578125 L 3.265625 -3.578125 L 3.265625 -3.109375 L 0.921875 -3.109375 L 0.921875 -2.0625 L 3.109375 -2.0625 L 3.109375 -1.59375 L 0.921875 -1.59375 L 0.921875 -0.46875 L 3.296875 -0.46875 L 3.296875 0 Z M 0.40625 0 "/></g></g></g><g fill="#eee5e9" fill-opacity="1"><g transform="translate(66.752857, 34.158132)"><g><path d="M 3.296875 -2.546875 L 2.796875 -2.546875 C 2.785156 -2.773438 2.703125 -2.941406 2.546875 -3.046875 C 2.390625 -3.148438 2.15625 -3.203125 1.84375 -3.203125 C 1.53125 -3.203125 1.296875 -3.148438 1.140625 -3.046875 C 0.984375 -2.953125 0.90625 -2.816406 0.90625 -2.640625 C 0.90625 -2.492188 0.953125 -2.382812 1.046875 -2.3125 C 1.148438 -2.25 1.3125 -2.195312 1.53125 -2.15625 L 2.328125 -2 C 2.578125 -1.957031 2.78125 -1.894531 2.9375 -1.8125 C 3.101562 -1.738281 3.226562 -1.640625 3.3125 -1.515625 C 3.394531 -1.390625 3.4375 -1.226562 3.4375 -1.03125 C 3.4375 -0.6875 3.300781 -0.410156 3.03125 -0.203125 C 2.769531 -0.00390625 2.382812 0.09375 1.875 0.09375 C 1.34375 0.09375 0.9375 -0.015625 0.65625 -0.234375 C 0.382812 -0.453125 0.25 -0.773438 0.25 -1.203125 L 0.78125 -1.203125 C 0.800781 -0.648438 1.175781 -0.375 1.90625 -0.375 C 2.226562 -0.375 2.472656 -0.425781 2.640625 -0.53125 C 2.816406 -0.644531 2.90625 -0.796875 2.90625 -0.984375 C 2.90625 -1.128906 2.851562 -1.238281 2.75 -1.3125 C 2.65625 -1.394531 2.5 -1.453125 2.28125 -1.484375 L 1.40625 -1.65625 C 1.050781 -1.71875 0.785156 -1.820312 0.609375 -1.96875 C 0.441406 -2.113281 0.359375 -2.320312 0.359375 -2.59375 C 0.359375 -2.925781 0.484375 -3.1875 0.734375 -3.375 C 0.992188 -3.570312 1.375 -3.671875 1.875 -3.671875 C 2.332031 -3.671875 2.679688 -3.570312 2.921875 -3.375 C 3.171875 -3.175781 3.296875 -2.898438 3.296875 -2.546875 Z M 3.296875 -2.546875 "/></g></g></g><g fill="#eee5e9" fill-opacity="1"><g transform="translate(70.891553, 34.158132)"><g><path d="M 0 -3.578125 L 3.25 -3.578125 L 3.25 -3.109375 L 1.875 -3.109375 L 1.875 0 L 1.375 0 L 1.375 -3.109375 L 0 -3.109375 Z M 0 -3.578125 "/></g></g></g><g fill="#eee5e9" fill-opacity="1"><g transform="translate(74.596228, 34.158132)"><g><path d="M 0.921875 -3.109375 L 0.921875 -0.46875 L 2.140625 -0.46875 C 2.585938 -0.46875 2.925781 -0.566406 3.15625 -0.765625 C 3.382812 -0.960938 3.5 -1.304688 3.5 -1.796875 C 3.5 -2.265625 3.382812 -2.597656 3.15625 -2.796875 C 2.925781 -3.003906 2.585938 -3.109375 2.140625 -3.109375 Z M 0.40625 0 L 0.40625 -3.578125 L 2.1875 -3.578125 C 2.550781 -3.578125 2.867188 -3.519531 3.140625 -3.40625 C 3.421875 -3.289062 3.640625 -3.097656 3.796875 -2.828125 C 3.953125 -2.566406 4.03125 -2.222656 4.03125 -1.796875 C 4.03125 -1.453125 3.976562 -1.160156 3.875 -0.921875 C 3.78125 -0.691406 3.640625 -0.507812 3.453125 -0.375 C 3.273438 -0.238281 3.0625 -0.140625 2.8125 -0.078125 C 2.5625 -0.0234375 2.285156 0 1.984375 0 Z M 0.40625 0 "/></g></g></g><g fill="#eee5e9" fill-opacity="1"><g transform="translate(79.297186, 34.158132)"><g/></g></g><g fill="#eee5e9" fill-opacity="1"><g transform="translate(81.408785, 34.158132)"><g><path d="M 0.8125 -2.3125 L 0.28125 -2.3125 C 0.28125 -2.726562 0.398438 -3.039062 0.640625 -3.25 C 0.878906 -3.46875 1.21875 -3.578125 1.65625 -3.578125 C 2.082031 -3.578125 2.410156 -3.472656 2.640625 -3.265625 C 2.878906 -3.066406 3 -2.800781 3 -2.46875 C 3 -2.25 2.945312 -2.0625 2.84375 -1.90625 C 2.75 -1.757812 2.625 -1.628906 2.46875 -1.515625 C 2.320312 -1.410156 2.15625 -1.316406 1.96875 -1.234375 C 1.882812 -1.191406 1.78125 -1.140625 1.65625 -1.078125 C 1.539062 -1.015625 1.425781 -0.945312 1.3125 -0.875 C 1.195312 -0.800781 1.097656 -0.726562 1.015625 -0.65625 C 0.929688 -0.582031 0.875 -0.519531 0.84375 -0.46875 L 2.953125 -0.46875 L 2.953125 0 L 0.21875 0 C 0.21875 -0.238281 0.273438 -0.445312 0.390625 -0.625 C 0.503906 -0.8125 0.65625 -0.972656 0.84375 -1.109375 C 1.039062 -1.242188 1.25 -1.363281 1.46875 -1.46875 C 1.707031 -1.59375 1.898438 -1.703125 2.046875 -1.796875 C 2.203125 -1.890625 2.3125 -1.988281 2.375 -2.09375 C 2.445312 -2.195312 2.484375 -2.320312 2.484375 -2.46875 C 2.484375 -2.65625 2.40625 -2.8125 2.25 -2.9375 C 2.101562 -3.070312 1.90625 -3.140625 1.65625 -3.140625 C 1.394531 -3.140625 1.1875 -3.066406 1.03125 -2.921875 C 0.882812 -2.785156 0.8125 -2.582031 0.8125 -2.3125 Z M 0.8125 -2.3125 "/></g></g></g><g fill="#eee5e9" fill-opacity="1"><g transform="translate(85.182508, 34.158132)"><g><path d="M 1.65625 -3.578125 C 2.113281 -3.578125 2.46875 -3.421875 2.71875 -3.109375 C 2.96875 -2.796875 3.09375 -2.34375 3.09375 -1.75 C 3.09375 -1.15625 2.96875 -0.695312 2.71875 -0.375 C 2.46875 -0.0625 2.113281 0.09375 1.65625 0.09375 C 1.195312 0.09375 0.84375 -0.0625 0.59375 -0.375 C 0.34375 -0.695312 0.21875 -1.15625 0.21875 -1.75 C 0.21875 -2.34375 0.34375 -2.796875 0.59375 -3.109375 C 0.84375 -3.421875 1.195312 -3.578125 1.65625 -3.578125 Z M 1.65625 -3.109375 C 1.34375 -3.109375 1.109375 -2.992188 0.953125 -2.765625 C 0.804688 -2.546875 0.734375 -2.207031 0.734375 -1.75 C 0.734375 -0.832031 1.039062 -0.375 1.65625 -0.375 C 1.96875 -0.375 2.195312 -0.488281 2.34375 -0.71875 C 2.5 -0.945312 2.578125 -1.289062 2.578125 -1.75 C 2.578125 -2.207031 2.5 -2.546875 2.34375 -2.765625 C 2.195312 -2.992188 1.96875 -3.109375 1.65625 -3.109375 Z M 1.65625 -3.109375 "/></g></g></g><g fill="#eee5e9" fill-opacity="1"><g transform="translate(88.956231, 34.158132)"><g><path d="M 0.8125 -2.3125 L 0.28125 -2.3125 C 0.28125 -2.726562 0.398438 -3.039062 0.640625 -3.25 C 0.878906 -3.46875 1.21875 -3.578125 1.65625 -3.578125 C 2.082031 -3.578125 2.410156 -3.472656 2.640625 -3.265625 C 2.878906 -3.066406 3 -2.800781 3 -2.46875 C 3 -2.25 2.945312 -2.0625 2.84375 -1.90625 C 2.75 -1.757812 2.625 -1.628906 2.46875 -1.515625 C 2.320312 -1.410156 2.15625 -1.316406 1.96875 -1.234375 C 1.882812 -1.191406 1.78125 -1.140625 1.65625 -1.078125 C 1.539062 -1.015625 1.425781 -0.945312 1.3125 -0.875 C 1.195312 -0.800781 1.097656 -0.726562 1.015625 -0.65625 C 0.929688 -0.582031 0.875 -0.519531 0.84375 -0.46875 L 2.953125 -0.46875 L 2.953125 0 L 0.21875 0 C 0.21875 -0.238281 0.273438 -0.445312 0.390625 -0.625 C 0.503906 -0.8125 0.65625 -0.972656 0.84375 -1.109375 C 1.039062 -1.242188 1.25 -1.363281 1.46875 -1.46875 C 1.707031 -1.59375 1.898438 -1.703125 2.046875 -1.796875 C 2.203125 -1.890625 2.3125 -1.988281 2.375 -2.09375 C 2.445312 -2.195312 2.484375 -2.320312 2.484375 -2.46875 C 2.484375 -2.65625 2.40625 -2.8125 2.25 -2.9375 C 2.101562 -3.070312 1.90625 -3.140625 1.65625 -3.140625 C 1.394531 -3.140625 1.1875 -3.066406 1.03125 -2.921875 C 0.882812 -2.785156 0.8125 -2.582031 0.8125 -2.3125 Z M 0.8125 -2.3125 "/></g></g></g><g fill="#eee5e9" fill-opacity="1"><g transform="translate(92.729954, 34.158132)"><g><path d="M 0.25 -1.109375 L 0.75 -1.109375 C 0.75 -0.597656 1.039062 -0.34375 1.625 -0.34375 C 1.914062 -0.34375 2.140625 -0.398438 2.296875 -0.515625 C 2.460938 -0.640625 2.546875 -0.800781 2.546875 -1 C 2.546875 -1.40625 2.21875 -1.609375 1.5625 -1.609375 L 1.34375 -1.609375 L 1.34375 -2.015625 L 1.546875 -2.015625 C 2.128906 -2.015625 2.421875 -2.191406 2.421875 -2.546875 C 2.421875 -2.710938 2.351562 -2.851562 2.21875 -2.96875 C 2.082031 -3.082031 1.894531 -3.140625 1.65625 -3.140625 C 1.394531 -3.140625 1.191406 -3.078125 1.046875 -2.953125 C 0.910156 -2.828125 0.84375 -2.640625 0.84375 -2.390625 L 0.328125 -2.390625 C 0.328125 -2.773438 0.441406 -3.066406 0.671875 -3.265625 C 0.898438 -3.472656 1.226562 -3.578125 1.65625 -3.578125 C 1.914062 -3.578125 2.140625 -3.535156 2.328125 -3.453125 C 2.515625 -3.367188 2.660156 -3.253906 2.765625 -3.109375 C 2.867188 -2.960938 2.921875 -2.796875 2.921875 -2.609375 C 2.921875 -2.210938 2.710938 -1.957031 2.296875 -1.84375 C 2.546875 -1.820312 2.738281 -1.738281 2.875 -1.59375 C 3.007812 -1.457031 3.078125 -1.269531 3.078125 -1.03125 C 3.078125 -0.8125 3.019531 -0.613281 2.90625 -0.4375 C 2.789062 -0.269531 2.628906 -0.140625 2.421875 -0.046875 C 2.210938 0.046875 1.957031 0.09375 1.65625 0.09375 C 0.71875 0.09375 0.25 -0.300781 0.25 -1.09375 Z M 0.25 -1.109375 "/></g></g></g></svg>